<svg xmlns="http://www.w3.org/2000/svg" viewBox="0 0 100 100" width="100" height="100">
  <circle cx="30" cy="25" r="6" fill="none" stroke="#26C6DA" stroke-width="1.5"/>
  <circle cx="70" cy="25" r="6" fill="none" stroke="#26C6DA" stroke-width="1.5"/>
  <circle cx="30" cy="50" r="6" fill="none" stroke="#26C6DA" stroke-width="1.5"/>
  <circle cx="70" cy="50" r="6" fill="none" stroke="#26C6DA" stroke-width="1.5"/>
  <circle cx="50" cy="37.5" r="6" fill="none" stroke="#26C6DA" stroke-width="1.5"/>
  <circle cx="50" cy="62.5" r="6" fill="none" stroke="#26C6DA" stroke-width="1.5"/>
  <circle cx="30" cy="75" r="6" fill="none" stroke="#26C6DA" stroke-width="1.5"/>
  <circle cx="70" cy="75" r="6" fill="none" stroke="#26C6DA" stroke-width="1.5"/>
  <line x1="30" y1="31" x2="30" y2="44" stroke="#26C6DA" stroke-width="1" opacity="0.5"/>
  <line x1="70" y1="31" x2="70" y2="44" stroke="#26C6DA" stroke-width="1" opacity="0.5"/>
  <line x1="36" y1="27" x2="44" y2="35" stroke="#26C6DA" stroke-width="1" opacity="0.5"/>
  <line x1="64" y1="27" x2="56" y2="35" stroke="#26C6DA" stroke-width="1" opacity="0.5"/>
  <line x1="36" y1="48" x2="44" y2="40" stroke="#26C6DA" stroke-width="1" opacity="0.5"/>
  <line x1="64" y1="48" x2="56" y2="40" stroke="#26C6DA" stroke-width="1" opacity="0.5"/>
  <line x1="30" y1="56" x2="44" y2="60" stroke="#26C6DA" stroke-width="1" opacity="0.5"/>
  <line x1="70" y1="56" x2="56" y2="60" stroke="#26C6DA" stroke-width="1" opacity="0.5"/>
  <line x1="30" y1="69" x2="44" y2="65" stroke="#26C6DA" stroke-width="1" opacity="0.5"/>
  <line x1="70" y1="69" x2="56" y2="65" stroke="#26C6DA" stroke-width="1" opacity="0.5"/>
</svg>
