<svg xmlns="http://www.w3.org/2000/svg" viewBox="0 0 100 100" width="100" height="100">
  <!-- Stylized eye/chip design inspired by AI/GPU computing -->
  <defs>
    <linearGradient id="nvidiaGrad" x1="0%" y1="0%" x2="100%" y2="100%">
      <stop offset="0%" style="stop-color:#76B900;stop-opacity:1" />
      <stop offset="100%" style="stop-color:#5A9500;stop-opacity:1" />
    </linearGradient>
  </defs>

  <!-- Outer hexagon representing chip -->
  <polygon points="50,10 80,27.5 80,62.5 50,80 20,62.5 20,27.5"
           fill="none" stroke="#76B900" stroke-width="2"/>

  <!-- Inner circuit/eye design -->
  <ellipse cx="50" cy="45" rx="20" ry="12" fill="none" stroke="#76B900" stroke-width="2"/>

  <!-- Center core -->
  <circle cx="50" cy="45" r="4" fill="#76B900"/>

  <!-- Circuit traces -->
  <line x1="50" y1="10" x2="50" y2="33" stroke="#76B900" stroke-width="1.5" opacity="0.7"/>
  <line x1="50" y1="57" x2="50" y2="80" stroke="#76B900" stroke-width="1.5" opacity="0.7"/>
  <line x1="20" y1="27.5" x2="32" y2="38" stroke="#76B900" stroke-width="1.5" opacity="0.7"/>
  <line x1="80" y1="27.5" x2="68" y2="38" stroke="#76B900" stroke-width="1.5" opacity="0.7"/>
  <line x1="20" y1="62.5" x2="32" y2="52" stroke="#76B900" stroke-width="1.5" opacity="0.7"/>
  <line x1="80" y1="62.5" x2="68" y2="52" stroke="#76B900" stroke-width="1.5" opacity="0.7"/>

  <!-- Corner connection points -->
  <circle cx="50" cy="10" r="2.5" fill="#76B900"/>
  <circle cx="80" cy="27.5" r="2.5" fill="#76B900"/>
  <circle cx="80" cy="62.5" r="2.5" fill="#76B900"/>
  <circle cx="50" cy="80" r="2.5" fill="#76B900"/>
  <circle cx="20" cy="62.5" r="2.5" fill="#76B900"/>
  <circle cx="20" cy="27.5" r="2.5" fill="#76B900"/>
</svg>